<svg width="176" height="32" viewBox="0 0 176 32" fill="none" xmlns="http://www.w3.org/2000/svg" role="img" aria-labelledby="title">
  <title id="title">Wemian Labs</title>
  <path d="M2 5H8.5L12.75 21.5L17.25 5H22.75L27.25 21.5L31.5 5H38L30.5 27H24.5L20 11.75L15.5 27H9.5L2 5Z" fill="#E6FF4B"/>
  <path d="M50 8H66V12H55V16H64.5V19.75H55V24H66.25V28H50V8Z" fill="#F4F4F4"/>
  <path d="M71 8H76.5L82 18.5L87.5 8H93V28H88.25V15.75L83.75 24H80.25L75.75 15.75V28H71V8Z" fill="#F4F4F4"/>
  <path d="M99 8H104V28H99V8Z" fill="#F4F4F4"/>
  <path d="M117.5 8H122.25L131 28H125.75L124.25 24.25H115.5L114 28H108.75L117.5 8ZM122.75 20.5L119.9 13.25L117 20.5H122.75Z" fill="#F4F4F4"/>
  <path d="M135 8H139.5L149.25 19.75V8H154.25V28H149.75L140 16.25V28H135V8Z" fill="#F4F4F4"/>
  <path d="M160 23.25H174V28H160V23.25Z" fill="#E6FF4B"/>
</svg>
