<?xml version="1.0" encoding="UTF-8"?>
<svg version="1.1" xmlns="http://www.w3.org/2000/svg" width="585" height="427">
<path d="M0 0 C6.90939198 3.7593036 9.56140237 7.9491428 11.94140625 15.23828125 C12.90938403 18.73867977 13.74818498 22.26273185 14.56640625 25.80078125 C14.78296875 26.70763672 14.99953125 27.61449219 15.22265625 28.54882812 C16.37023593 33.43312557 17.32661156 38.25844429 17.94140625 43.23828125 C18.93140625 43.23828125 19.92140625 43.23828125 20.94140625 43.23828125 C21.21436523 42.64065979 21.48732422 42.04303833 21.76855469 41.42730713 C22.90840493 39.29987535 24.01355568 37.91287653 25.70703125 36.21386719 C26.26100586 35.65358826 26.81498047 35.09330933 27.38574219 34.51605225 C27.98161133 33.92423157 28.57748047 33.33241089 29.19140625 32.72265625 C30.11228027 31.79891205 30.11228027 31.79891205 31.05175781 30.85650635 C32.34715108 29.55975479 33.64506269 28.26551468 34.9453125 26.97363281 C36.94115693 24.98852923 38.92607351 22.99294534 40.91015625 20.99609375 C42.1699318 19.73763914 43.43032726 18.47980471 44.69140625 17.22265625 C45.28727539 16.62273865 45.88314453 16.02282104 46.49707031 15.40472412 C50.71147378 11.23828125 50.71147378 11.23828125 52.94140625 11.23828125 C53.20308594 10.64273438 53.46476562 10.0471875 53.734375 9.43359375 C56.08466419 5.15895774 60.14785594 2.27665248 64.31640625 -0.13671875 C70.14582234 -1.52467496 74.98469641 -1.70035444 80.25390625 1.42578125 C85.48705056 5.12955734 88.37561084 8.97509959 89.94140625 15.23828125 C90.99890596 21.55896918 91.06153965 27.84451485 90.94140625 34.23828125 C94.84191126 31.13560681 97.83169117 28.15050345 100.94140625 24.23828125 C102.08609375 23.34109375 102.08609375 23.34109375 103.25390625 22.42578125 C105.53774396 20.56684358 107.23259268 18.83454997 109.12890625 16.61328125 C111.99042131 13.28317747 114.94283825 10.07417702 118.00390625 6.92578125 C119.19693359 5.69408203 119.19693359 5.69408203 120.4140625 4.4375 C125.50120108 0.01082455 129.88145645 -1.31360361 136.47265625 -1.125 C140.36453711 -0.55230234 142.71945221 1.00263967 145.94140625 3.23828125 C146.93140625 3.89828125 147.92140625 4.55828125 148.94140625 5.23828125 C152.1010368 10.66504931 153.62227822 15.89788599 152.5703125 22.12109375 C151.54949195 25.55764492 149.91170247 28.25105794 147.94140625 31.23828125 C147.28140625 31.23828125 146.62140625 31.23828125 145.94140625 31.23828125 C145.61140625 32.22828125 145.28140625 33.21828125 144.94140625 34.23828125 C144.28140625 34.23828125 143.62140625 34.23828125 142.94140625 34.23828125 C142.69519531 34.82351562 142.44898438 35.40875 142.1953125 36.01171875 C140.74766857 38.58230142 139.14898143 39.99283818 136.87890625 41.86328125 C133.96264913 44.19313677 133.96264913 44.19313677 131.94140625 47.23828125 C131.28140625 47.23828125 130.62140625 47.23828125 129.94140625 47.23828125 C129.61140625 48.22828125 129.28140625 49.21828125 128.94140625 50.23828125 C128.28140625 50.23828125 127.62140625 50.23828125 126.94140625 50.23828125 C126.94140625 50.89828125 126.94140625 51.55828125 126.94140625 52.23828125 C124.56640625 54.86328125 124.56640625 54.86328125 121.94140625 57.23828125 C121.28140625 57.23828125 120.62140625 57.23828125 119.94140625 57.23828125 C119.61140625 58.22828125 119.28140625 59.21828125 118.94140625 60.23828125 C118.28140625 60.23828125 117.62140625 60.23828125 116.94140625 60.23828125 C116.61140625 61.22828125 116.28140625 62.21828125 115.94140625 63.23828125 C115.28140625 63.23828125 114.62140625 63.23828125 113.94140625 63.23828125 C113.61140625 64.22828125 113.28140625 65.21828125 112.94140625 66.23828125 C112.28140625 66.23828125 111.62140625 66.23828125 110.94140625 66.23828125 C110.61140625 67.22828125 110.28140625 68.21828125 109.94140625 69.23828125 C109.28140625 69.23828125 108.62140625 69.23828125 107.94140625 69.23828125 C107.53921875 70.13546875 107.53921875 70.13546875 107.12890625 71.05078125 C105.94223219 73.23675979 104.84541512 74.65160719 102.94140625 76.23828125 C102.28140625 76.23828125 101.62140625 76.23828125 100.94140625 76.23828125 C100.44640625 77.72328125 100.44640625 77.72328125 99.94140625 79.23828125 C99.28140625 79.23828125 98.62140625 79.23828125 97.94140625 79.23828125 C97.44640625 80.72328125 97.44640625 80.72328125 96.94140625 82.23828125 C96.28140625 82.23828125 95.62140625 82.23828125 94.94140625 82.23828125 C94.63203125 83.04265625 94.63203125 83.04265625 94.31640625 83.86328125 C92.40890199 87.15806134 89.89321241 89.83191753 86.94140625 92.23828125 C86.28140625 92.23828125 85.62140625 92.23828125 84.94140625 92.23828125 C84.44640625 93.72328125 84.44640625 93.72328125 83.94140625 95.23828125 C78.69125045 98.96865511 73.13380703 99.03645189 66.94140625 98.23828125 C62.27582919 96.74682629 58.29669143 94.68715325 55.94140625 90.23828125 C53.34217012 84.38999995 53.716062 78.63093763 53.81640625 72.36328125 C53.82542969 71.29335937 53.83445312 70.2234375 53.84375 69.12109375 C53.86721283 66.49325686 53.90004166 63.86588719 53.94140625 61.23828125 C53.33167969 62.02332031 52.72195313 62.80835938 52.09375 63.6171875 C49.94140625 66.23828125 49.94140625 66.23828125 47.50390625 68.17578125 C44.78535629 70.22520529 44.78535629 70.22520529 42.44140625 73.23828125 C40.10622388 76.04050009 37.7723966 77.97348897 34.94140625 80.23828125 C34.02547093 81.30467281 33.12987564 82.38882407 32.25390625 83.48828125 C31.49078125 84.39578125 30.72765625 85.30328125 29.94140625 86.23828125 C29.28140625 86.23828125 28.62140625 86.23828125 27.94140625 86.23828125 C27.44640625 87.72328125 27.44640625 87.72328125 26.94140625 89.23828125 C22.00744066 94.58001259 17.28596644 96.97283997 10.00390625 97.55078125 C4.32510415 97.3665453 0.31103832 95.54565732 -3.80859375 91.61328125 C-6.63841062 87.81875408 -7.78635086 83.75008897 -9.05859375 79.23828125 C-9.61972582 77.36041327 -10.18087111 75.48254923 -10.7421875 73.60473633 C-13.1668921 65.44488997 -15.49350008 57.25594234 -17.81640625 49.06665039 C-19.0186331 44.83666504 -20.23825384 40.61421371 -21.515625 36.40625 C-21.74443359 35.64828125 -21.97324219 34.8903125 -22.20898438 34.109375 C-22.6331364 32.71054914 -23.06236217 31.31324562 -23.49804688 29.91796875 C-25.96400551 21.76452975 -26.92931256 15.05444317 -23.05859375 7.23828125 C-17.28635277 0.06198165 -8.93596866 -3.30647797 0 0 Z " fill="#E6FC56" transform="translate(225.05859375,164.76171875)"/>
<path d="M0 0 C6.90939198 3.7593036 9.56140237 7.9491428 11.94140625 15.23828125 C12.90938403 18.73867977 13.74818498 22.26273185 14.56640625 25.80078125 C14.78296875 26.70763672 14.99953125 27.61449219 15.22265625 28.54882812 C16.37023593 33.43312557 17.32661156 38.25844429 17.94140625 43.23828125 C18.93140625 43.23828125 19.92140625 43.23828125 20.94140625 43.23828125 C21.27140625 42.24828125 21.60140625 41.25828125 21.94140625 40.23828125 C22.27140625 40.89828125 22.60140625 41.55828125 22.94140625 42.23828125 C22.61140625 43.22828125 22.28140625 44.21828125 21.94140625 45.23828125 C20.62140625 45.23828125 19.30140625 45.23828125 17.94140625 45.23828125 C17.67328125 45.83640625 17.40515625 46.43453125 17.12890625 47.05078125 C15.94223219 49.23675979 14.84541512 50.65160719 12.94140625 52.23828125 C12.28140625 52.23828125 11.62140625 52.23828125 10.94140625 52.23828125 C10.94140625 52.89828125 10.94140625 53.55828125 10.94140625 54.23828125 C6.63908067 59.00572311 6.63908067 59.00572311 2.94140625 60.23828125 C1.72270696 62.74275641 1.72270696 62.74275641 0.94140625 65.23828125 C0.28140625 65.23828125 -0.37859375 65.23828125 -1.05859375 65.23828125 C-1.05859375 65.89828125 -1.05859375 66.55828125 -1.05859375 67.23828125 C-1.71859375 67.23828125 -2.37859375 67.23828125 -3.05859375 67.23828125 C-5.53219786 73.99946583 -7.01550298 79.43739002 -4.05859375 86.23828125 C-3.50171875 87.14578125 -2.94484375 88.05328125 -2.37109375 88.98828125 C-1.93796875 89.73078125 -1.50484375 90.47328125 -1.05859375 91.23828125 C-1.38859375 91.89828125 -1.71859375 92.55828125 -2.05859375 93.23828125 C-6.09837359 88.91989591 -7.44718084 84.78033687 -9.05859375 79.23828125 C-9.41695312 78.04203125 -9.7753125 76.84578125 -10.14453125 75.61328125 C-12.77776772 66.78652684 -15.30284092 57.92810186 -17.81640625 49.06665039 C-19.0186331 44.83666504 -20.23825384 40.61421371 -21.515625 36.40625 C-21.74443359 35.64828125 -21.97324219 34.8903125 -22.20898438 34.109375 C-22.6331364 32.71054914 -23.06236217 31.31324562 -23.49804688 29.91796875 C-25.96400551 21.76452975 -26.92931256 15.05444317 -23.05859375 7.23828125 C-17.28635277 0.06198165 -8.93596866 -3.30647797 0 0 Z " fill="#F1FDA6" transform="translate(225.05859375,164.76171875)"/>
<path d="M0 0 C4.75007265 3.64540459 7.55492273 9.20112074 8.6875 15.0625 C9.02532708 20.38327647 9.19534771 23.74514897 5.6875 28.0625 C5.0275 28.0625 4.3675 28.0625 3.6875 28.0625 C3.44 28.68125 3.1925 29.3 2.9375 29.9375 C1.42491305 32.50889782 0.42418235 32.96203514 -2.3125 34.0625 C-9.49091415 35.12872386 -15.02817149 33.46271639 -21.3125 30.0625 C-21.3125 29.0725 -21.3125 28.0825 -21.3125 27.0625 C-22.3025 27.0625 -23.2925 27.0625 -24.3125 27.0625 C-26.06175427 18.98412575 -24.93925429 13.93766743 -21.05078125 6.69140625 C-15.6323137 -1.5032649 -9.25997431 -2.62074745 0 0 Z " fill="#E6FC59" transform="translate(226.3125,164.9375)"/>
<path d="M0 0 C3.84132871 6.96436018 3.14561978 15.24979175 3 23 C3.99 22.67 4.98 22.34 6 22 C4.88066638 25.35800085 3.97594556 26.1056451 1.3125 28.3125 C-1.38374342 30.58760665 -3.93223742 32.8922017 -6.375 35.4375 C-9 38 -9 38 -11 38 C-11 38.66 -11 39.32 -11 40 C-11.66 40 -12.32 40 -13 40 C-13 40.66 -13 41.32 -13 42 C-14.875 44.125 -14.875 44.125 -17 46 C-17.66 46 -18.32 46 -19 46 C-19.23589844 46.73992187 -19.47179687 47.47984375 -19.71484375 48.2421875 C-21.20702666 51.44425782 -22.84388805 52.89949102 -25.5625 55.125 C-29.1266725 57.95608688 -29.1266725 57.95608688 -31 62 C-31.09398043 64.03992808 -31.12992069 66.08291414 -31.125 68.125 C-31.12757813 69.20007813 -31.13015625 70.27515625 -31.1328125 71.3828125 C-31.29688975 73.92656396 -31.29688975 73.92656396 -30 75 C-29.95936168 76.66617115 -29.957279 78.33388095 -30 80 C-32 79 -32 79 -33.08984375 76.71875 C-34.4131236 71.31204433 -34.48873511 66.04840286 -34.5625 60.5 C-34.63694336 58.82744141 -34.63694336 58.82744141 -34.71289062 57.12109375 C-34.81332404 49.09598533 -34.81332404 49.09598533 -32.48754883 45.96191406 C-30.72837114 44.45463794 -28.9616717 43.22529201 -27 42 C-22.80896466 38.13135199 -19.36981526 33.78859618 -15.8671875 29.3046875 C-14.31931472 27.39413323 -12.85901145 25.6069421 -11 24 C-10.34 24 -9.68 24 -9 24 C-8.773125 23.4225 -8.54625 22.845 -8.3125 22.25 C-6.67490316 19.44269113 -4.52735142 18.00892036 -2 16 C-0.89485234 12.68455701 -0.67892369 9.79589889 -0.4375 6.3125 C-0.35371094 5.13300781 -0.26992188 3.95351562 -0.18359375 2.73828125 C-0.09271484 1.38283203 -0.09271484 1.38283203 0 0 Z " fill="#F2FDA2" transform="translate(313,176)"/>
<path d="M0 0 C0.66 0.33 1.32 0.66 2 1 C1.401875 1.845625 0.80375 2.69125 0.1875 3.5625 C-4.63703008 10.97159977 -5.7631565 16.37425833 -4 25 C-1.8183288 34.22829428 -1.8183288 34.22829428 3 42 C3.1953125 44.1640625 3.1953125 44.1640625 3.125 46.625 C3.10695312 47.44226563 3.08890625 48.25953125 3.0703125 49.1015625 C3.04710937 49.72804687 3.02390625 50.35453125 3 51 C3.66 51 4.32 51 5 51 C5.10957031 51.81984375 5.21914062 52.6396875 5.33203125 53.484375 C5.49058594 54.56203125 5.64914063 55.6396875 5.8125 56.75 C5.96332031 57.81734375 6.11414063 58.8846875 6.26953125 59.984375 C6.78924764 63.00692664 6.78924764 63.00692664 8.5625 65.0625 C10.43656093 67.5884082 10.3099778 69.14722904 10.1875 72.25 C10.16042969 73.14203125 10.13335937 74.0340625 10.10546875 74.953125 C10.05326172 75.96632812 10.05326172 75.96632812 10 77 C5.12531528 67.91341664 3.09284975 56.92162574 0.29321289 47.03271484 C-0.92639506 42.72908081 -2.1614307 38.43260529 -3.4609375 34.15234375 C-3.68918213 33.39663086 -3.91742676 32.64091797 -4.15258789 31.86230469 C-4.57604253 30.46676864 -5.00448454 29.07273064 -5.43920898 27.68066406 C-7.8938379 19.56396936 -8.91615884 12.77320586 -5 5 C-3.45497845 3.02860752 -1.9341565 1.6205095 0 0 Z " fill="#F5FBC7" transform="translate(207,167)"/>
<path d="M0 0 C1.94946349 1.22014293 3.81274735 2.48434019 5.640625 3.87890625 C4.320625 4.20890625 3.000625 4.53890625 1.640625 4.87890625 C1.145625 3.88890625 1.145625 3.88890625 0.640625 2.87890625 C-4.35328656 1.17366816 -10.58694943 0.63698327 -15.4609375 2.8203125 C-19.12320025 5.30597594 -21.32161691 7.91064049 -23.359375 11.87890625 C-24.019375 12.53890625 -24.679375 13.19890625 -25.359375 13.87890625 C-25.7925 15.11640625 -25.7925 15.11640625 -26.234375 16.37890625 C-27.359375 18.87890625 -27.359375 18.87890625 -29.109375 20.12890625 C-31.83425236 21.0371987 -34.51706526 21.49131856 -37.359375 21.87890625 C-30.30913189 13.51261776 -30.30913189 13.51261776 -27.359375 10.87890625 C-26.699375 10.87890625 -26.039375 10.87890625 -25.359375 10.87890625 C-25.09769531 10.28335938 -24.83601563 9.6878125 -24.56640625 9.07421875 C-22.21611706 4.79958274 -18.15292531 1.91727748 -13.984375 -0.49609375 C-9.11806779 -1.65473832 -4.62862218 -2.19936186 0 0 Z " fill="#EBFA78" transform="translate(303.359375,165.12109375)"/>
<path d="M0 0 C2.296875 1.02734375 2.296875 1.02734375 4 2 C4 2.33 4 2.66 4 3 C2.96359375 3.03738281 1.9271875 3.07476562 0.859375 3.11328125 C-0.51045184 3.17895788 -1.88024191 3.24540464 -3.25 3.3125 C-4.27287109 3.34633789 -4.27287109 3.34633789 -5.31640625 3.38085938 C-9.50060487 3.60428746 -11.92029201 4.13615939 -15 7 C-17.93430844 8.83394277 -20.89938149 10.46939807 -24 12 C-17.5739703 3.55366551 -11.10142409 -1.79359743 0 0 Z " fill="#ECF890" transform="translate(364,164)"/>
<path d="M0 0 C1.32 0.33 2.64 0.66 4 1 C-1.90120848 6.55202455 -6.52852485 9.4483357 -14.96484375 9.26953125 C-18.32368291 8.82469459 -20.98134247 7.50932877 -24 6 C-20.36827405 4.74286409 -17.7403311 5.36484944 -14 6 C-10.99787759 6.08844223 -8.00253184 6.06005064 -5 6 C-5 5.34 -5 4.68 -5 4 C-4.360625 3.71125 -3.72125 3.4225 -3.0625 3.125 C-0.84793921 2.17176549 -0.84793921 2.17176549 0 0 Z " fill="#E8F882" transform="translate(248,253)"/>
<path d="M0 0 C0.33 1.32 0.66 2.64 1 4 C0.01 4 -0.98 4 -2 4 C-2.268125 4.804375 -2.53625 5.60875 -2.8125 6.4375 C-3.204375 7.283125 -3.59625 8.12875 -4 9 C-7.99075406 10.33025135 -11.69386243 10.34111448 -15.875 10.4375 C-16.67808594 10.48326172 -17.48117188 10.52902344 -18.30859375 10.57617188 C-24.108516 10.68605508 -24.108516 10.68605508 -26.68457031 8.70361328 C-30 4.86131298 -30 4.86131298 -30 2 C-29.34 2 -28.68 2 -28 2 C-28 2.99 -28 3.98 -28 5 C-20.87020068 7.8932519 -13.51383199 9.86440887 -6.125 6.8125 C-3.71634257 4.75805689 -1.86361934 2.55384873 0 0 Z " fill="#EDFC80" transform="translate(233,190)"/>
<path d="M0 0 C1.94946349 1.22014293 3.81274735 2.48434019 5.640625 3.87890625 C4.320625 4.20890625 3.000625 4.53890625 1.640625 4.87890625 C1.310625 4.21890625 0.980625 3.55890625 0.640625 2.87890625 C-3.87574469 1.35013509 -8.6752122 1.11931228 -13.359375 1.87890625 C-16.39201179 3.51425305 -18.8054089 5.58702838 -21.359375 7.87890625 C-22.68429374 8.89002845 -24.01546079 9.89317182 -25.359375 10.87890625 C-23.03636023 5.59204506 -18.914769 2.35834488 -13.984375 -0.49609375 C-9.11806779 -1.65473832 -4.62862218 -2.19936186 0 0 Z " fill="#F4FCAA" transform="translate(303.359375,165.12109375)"/>
<path d="M0 0 C0.66 0.33 1.32 0.66 2 1 C1.401875 1.845625 0.80375 2.69125 0.1875 3.5625 C-4.06739334 10.04326282 -5.4686789 15.34491134 -5 23 C-5.66 22.67 -6.32 22.34 -7 22 C-8.46616294 15.68422119 -7.93273815 10.82120856 -5 5 C-3.45497845 3.02860752 -1.9341565 1.6205095 0 0 Z " fill="#EFFA9E" transform="translate(207,167)"/>
<path d="M0 0 C0.66 0.33 1.32 0.66 2 1 C-0.59881381 5.7872886 -3.81937321 9.21775695 -8.03125 12.66015625 C-12.22226629 16.11470772 -14.91197059 18.42384927 -16 24 C-16.6875 22.3125 -16.6875 22.3125 -17 20 C-15.18826376 15.69712644 -12.16911027 13.35637171 -8.64453125 10.4921875 C-6.56451544 8.60485724 -5.36134258 6.43608672 -4 4 C-3.34 4 -2.68 4 -2 4 C-1.34 2.68 -0.68 1.36 0 0 Z " fill="#E7FB6B" transform="translate(298,218)"/>
<path d="M0 0 C0 3 0 3 -1.0625 5.0625 C-2.62073478 9.94496898 -2.30037121 15.33081699 -0.03515625 19.98046875 C1.13778967 21.79454636 1.13778967 21.79454636 3 24 C2.67 24.66 2.34 25.32 2 26 C-2.82726685 20.20727978 -4.3111539 16.82503161 -4.125 9.25 C-4.11597656 8.55261719 -4.10695312 7.85523438 -4.09765625 7.13671875 C-4.07419888 5.42433042 -4.03833104 3.71211996 -4 2 C-2.68 1.34 -1.36 0.68 0 0 Z " fill="#EBF698" transform="translate(221,232)"/>
<path d="M0 0 C0 3 0 3 -1.875 5.1875 C-4 7 -4 7 -6 7 C-6 7.66 -6 8.32 -6 9 C-10.30232558 13.76744186 -10.30232558 13.76744186 -14 15 C-15.21869929 17.50447516 -15.21869929 17.50447516 -16 20 C-16.66 20 -17.32 20 -18 20 C-18 20.66 -18 21.32 -18 22 C-18.66 22 -19.32 22 -20 22 C-19.67 20.35 -19.34 18.7 -19 17 C-18.01 16.67 -17.02 16.34 -16 16 C-14.18653734 14.1355719 -14.18653734 14.1355719 -12.4375 11.9375 C-11.33498812 10.58840481 -10.19689312 9.26611103 -9 8 C-8.34 8 -7.68 8 -7 8 C-7 7.34 -7 6.68 -7 6 C-5.46875 4.4921875 -5.46875 4.4921875 -3.5 2.875 C-2.8503125 2.33617187 -2.200625 1.79734375 -1.53125 1.2421875 C-1.0259375 0.83226562 -0.520625 0.42234375 0 0 Z " fill="#EEFE8A" transform="translate(242,210)"/>
<path d="M0 0 C2.0625 0.4375 2.0625 0.4375 4 1 C-1.83909078 5.15224234 -6.87439376 5.97579958 -14 5 C-14.99 4.34 -15.98 3.68 -17 3 C-15.85660156 2.86722656 -14.71320313 2.73445313 -13.53515625 2.59765625 C-12.0442438 2.4194969 -10.55335982 2.24109918 -9.0625 2.0625 C-7.93038086 1.93198242 -7.93038086 1.93198242 -6.77539062 1.79882812 C-3.07812542 1.65675901 -3.07812542 1.65675901 0 0 Z " fill="#EBF791" transform="translate(306,258)"/>
<path d="M0 0 C0.66 0 1.32 0 2 0 C1.6628464 2.99392393 1.01189576 3.98831742 -1.1796875 6.140625 C-2.06914062 6.83671875 -2.95859375 7.5328125 -3.875 8.25 C-4.75929688 8.95640625 -5.64359375 9.6628125 -6.5546875 10.390625 C-9 12 -9 12 -12 12 C-11.0479279 10.99403703 -10.08812654 9.99538437 -9.125 9 C-8.32449219 8.1646875 -8.32449219 8.1646875 -7.5078125 7.3125 C-6 6 -6 6 -4 6 C-3.566875 5.071875 -3.566875 5.071875 -3.125 4.125 C-2 2 -2 2 0 0 Z " fill="#F0FE8C" transform="translate(308,194)"/>
<path d="M0 0 C0.66 0.33 1.32 0.66 2 1 C1.01 1.33 0.02 1.66 -1 2 C-1.268125 2.556875 -1.53625 3.11375 -1.8125 3.6875 C-3.532843 7.03764163 -6.08575288 9.62425507 -9 12 C-9.66 12 -10.32 12 -11 12 C-10.67 11.01 -10.34 10.02 -10 9 C-9.34 8.67 -8.68 8.34 -8 8 C-8 6.68 -8 5.36 -8 4 C-6.35 4 -4.7 4 -3 4 C-2.67 3.01 -2.34 2.02 -2 1 C-1.34 0.67 -0.68 0.34 0 0 Z " fill="#F0F99C" transform="translate(321,245)"/>
<path d="M0 0 C0 4.09939665 -1.52298101 5.78656995 -4 9 C-6.625 10.9375 -6.625 10.9375 -9 12 C-9.66 11.67 -10.32 11.34 -11 11 C-7.37 7.37 -3.74 3.74 0 0 Z " fill="#EFFB8E" transform="translate(259,193)"/>
<path d="M0 0 C0.66 0.33 1.32 0.66 2 1 C0.63016497 4.16115776 0.0109362 4.9927092 -3 7 C-3.33 7.99 -3.66 8.98 -4 10 C-7.0625 11.1875 -7.0625 11.1875 -10 12 C-8.74993611 8.24980832 -7.06668123 7.42481772 -4 5 C-2.62631655 3.36643049 -1.28062485 1.7074998 0 0 Z " fill="#EDFA97" transform="translate(329,186)"/>
<path d="M0 0 C0 3.24792684 -0.6507329 5.07658794 -2 8 C-2.66 8.66 -3.32 9.32 -4 10 C-6.125 9.625 -6.125 9.625 -8 9 C-6.85459775 7.68712379 -5.70866567 6.37470979 -4.5625 5.0625 C-3.92441406 4.33160156 -3.28632813 3.60070312 -2.62890625 2.84765625 C-1.77458541 1.87860647 -0.91348825 0.91348825 0 0 Z " fill="#EDFA87" transform="translate(339,176)"/>
<path d="M0 0 C0.66 0.33 1.32 0.66 2 1 C1.401875 1.845625 0.80375 2.69125 0.1875 3.5625 C-2.0400402 6.88399232 -3.51681821 10.29204553 -5 14 C-6.06287862 10.79700091 -5.96603992 9.01047549 -4.75 5.875 C-4.49734375 5.19179687 -4.2446875 4.50859375 -3.984375 3.8046875 C-3 2 -3 2 0 0 Z " fill="#EBF98C" transform="translate(207,167)"/>
<path d="M0 0 C2.61649061 4.44500336 2.13344027 8.09742105 1 13 C-0.5625 15.5625 -0.5625 15.5625 -2 17 C-2.042721 15.33388095 -2.04063832 13.66617115 -2 12 C-1.67 11.67 -1.34 11.34 -1 11 C-0.76636119 9.15108054 -0.58696365 7.29511969 -0.4375 5.4375 C-0.35371094 4.42558594 -0.26992188 3.41367188 -0.18359375 2.37109375 C-0.12300781 1.58863281 -0.06242187 0.80617187 0 0 Z " fill="#F0F8AF" transform="translate(376,176)"/>
<path d="M0 0 C6.69286912 -0.47617251 10.77531236 -0.39973696 16 4 C14.68 4.33 13.36 4.66 12 5 C11.67 4.34 11.34 3.68 11 3 C8.42048126 2.30906104 8.42048126 2.30906104 5.4375 1.875 C4.42558594 1.70742187 3.41367187 1.53984375 2.37109375 1.3671875 C1.58863281 1.24601563 0.80617188 1.12484375 0 1 C0 0.67 0 0.34 0 0 Z " fill="#E9F78D" transform="translate(293,165)"/>
<path d="M0 0 C0.66 0.33 1.32 0.66 2 1 C-0.64 4.3 -3.28 7.6 -6 11 C-6.66 10.67 -7.32 10.34 -8 10 C-5.83735988 6.01618925 -3.28788824 3.11016455 0 0 Z " fill="#E9FB73" transform="translate(296,204)"/>
<path d="M0 0 C0 2.95274099 -0.43891831 4.49058403 -1.5 7.1875 C-1.7784375 7.90292969 -2.056875 8.61835938 -2.34375 9.35546875 C-2.5603125 9.89816406 -2.776875 10.44085938 -3 11 C-3.33 11 -3.66 11 -4 11 C-4 8.03 -4 5.06 -4 2 C-2.68 1.34 -1.36 0.68 0 0 Z " fill="#EFFD8D" transform="translate(221,232)"/>
<path d="M0 0 C0.66 0.33 1.32 0.66 2 1 C0.71580959 2.67243402 -0.57757185 4.33781447 -1.875 6 C-2.59429687 6.928125 -3.31359375 7.85625 -4.0546875 8.8125 C-4.69664062 9.534375 -5.33859375 10.25625 -6 11 C-6.66 11 -7.32 11 -8 11 C-6.60366572 6.55711819 -4.39598172 4.13475236 -1 1 C-0.67 0.67 -0.34 0.34 0 0 Z " fill="#E7FC6B" transform="translate(234,219)"/>
<path d="M0 0 C6 3 6 3 7.125 6.0625 C7.41375 7.031875 7.7025 8.00125 8 9 C7.01 8.34 6.02 7.68 5 7 C5 6.34 5 5.68 5 5 C4.360625 4.731875 3.72125 4.46375 3.0625 4.1875 C1 3 1 3 0 0 Z " fill="#EBF898" transform="translate(368,167)"/>
<path d="M0 0 C1.32 0.33 2.64 0.66 4 1 C2.8803014 2.00593243 1.7540588 3.0045849 0.625 4 C-0.00148437 4.556875 -0.62796875 5.11375 -1.2734375 5.6875 C-3 7 -3 7 -5 7 C-5 6.01 -5 5.02 -5 4 C-4.360625 3.71125 -3.72125 3.4225 -3.0625 3.125 C-0.84793921 2.17176549 -0.84793921 2.17176549 0 0 Z " fill="#EBF791" transform="translate(248,253)"/>
<path d="M0 0 C0.99 0.33 1.98 0.66 3 1 C2.360625 1.268125 1.72125 1.53625 1.0625 1.8125 C-1.33131686 2.88667752 -1.33131686 2.88667752 -2 6 C-2.66 6 -3.32 6 -4 6 C-4 4.35 -4 2.7 -4 1 C-2.68 1.33 -1.36 1.66 0 2 C0 1.34 0 0.68 0 0 Z " fill="#EDF98F" transform="translate(327,238)"/>
<path d="M0 0 C0.66 0 1.32 0 2 0 C1.67 0.99 1.34 1.98 1 3 C0.34 3 -0.32 3 -1 3 C-1.33 3.99 -1.66 4.98 -2 6 C-2.66 6 -3.32 6 -4 6 C-4 4.68 -4 3.36 -4 2 C-2.68 2 -1.36 2 0 2 C0 1.34 0 0.68 0 0 Z " fill="#EDF99B" transform="translate(343,222)"/>
</svg>
